<svg width="32" height="32" viewBox="0 0 32 32" fill="none" xmlns="http://www.w3.org/2000/svg">
  <!-- Background -->
  <rect width="32" height="32" rx="8" fill="#0A0A0A"/>
  <!-- Leaf shape -->
  <path d="M8 6C8 6 5 12 5 18C5 24 8 29 14 32C20 29 23 24 23 18C23 12 20 6 20 6C20 6 17 9 14 9C11 9 8 6 8 6Z" fill="#22C55E" transform="translate(2, -2)"/>
  <!-- Carbon dots -->
  <circle cx="13" cy="16" r="1.5" fill="#0A0A0A"/>
  <circle cx="16" cy="13" r="1.5" fill="#0A0A0A"/>
  <circle cx="19" cy="16" r="1.5" fill="#0A0A0A"/>
  <circle cx="16" cy="19" r="1.5" fill="#0A0A0A"/>
  <circle cx="16" cy="16" r="1.5" fill="#0A0A0A"/>
</svg>
